<?xml version="1.0" standalone="no"?>
<!DOCTYPE svg PUBLIC "-//W3C//DTD SVG 20010904//EN"
 "http://www.w3.org/TR/2001/REC-SVG-20010904/DTD/svg10.dtd">
<svg version="1.0" xmlns="http://www.w3.org/2000/svg"
 width="1152.000000pt" height="648.000000pt" viewBox="0 0 1152.000000 648.000000"
 preserveAspectRatio="xMidYMid meet">

<g transform="translate(0.000000,648.000000) scale(0.100000,-0.100000)"
fill="#000000" stroke="none">
<path d="M1977 6210 c-196 -25 -347 -69 -512 -151 -160 -79 -288 -171 -415
-299 -176 -177 -295 -368 -369 -596 -61 -187 -75 -281 -75 -489 0 -206 18
-320 80 -496 225 -648 847 -1070 1527 -1035 586 29 1107 390 1338 925 248 576
124 1239 -316 1686 -228 232 -526 388 -840 441 -112 18 -328 26 -418 14z m344
-180 c193 -28 429 -142 577 -278 40 -38 52 -56 52 -78 0 -77 -56 -73 -153 10
-131 111 -260 177 -424 218 -133 33 -352 31 -483 -4 -166 -45 -295 -114 -423
-227 -80 -70 -137 -69 -137 3 0 66 223 227 417 300 158 60 391 83 574 56z
m-50 -939 c81 -26 157 -79 210 -147 23 -30 49 -54 59 -54 14 0 18 -14 23 -97
4 -54 7 -119 7 -145 0 -38 3 -46 15 -42 12 5 15 31 15 145 l0 139 41 0 40 0
-3 -202 -3 -203 438 3 439 2 -7 -42 c-82 -517 -457 -953 -966 -1122 -285 -95
-602 -93 -896 5 -373 124 -704 429 -854 787 -38 93 -84 247 -94 320 l-7 52
434 0 434 0 31 -62 c64 -132 179 -236 318 -288 83 -31 244 -39 334 -15 162 42
297 150 371 296 l20 38 -35 -15 c-19 -7 -57 -14 -84 -14 -47 0 -53 -3 -105
-55 -35 -35 -81 -68 -123 -88 -64 -30 -74 -32 -183 -32 -109 0 -119 2 -183 32
-89 43 -164 118 -209 211 -30 62 -37 70 -48 57 -18 -21 -54 -19 -76 6 -26 29
-25 99 1 134 15 21 61 54 82 61 2 0 6 15 9 32 6 28 4 32 -15 32 -15 0 -21 -6
-21 -22 0 -20 -5 -23 -37 -22 -45 1 -52 18 -29 63 20 38 44 51 91 51 31 0 36
-3 30 -17 -8 -23 2 -12 54 60 60 82 152 145 246 168 60 14 172 9 236 -10z"/>
<path d="M2055 4977 c-22 -8 -53 -21 -70 -29 -31 -17 -95 -78 -81 -78 4 0 -4
-14 -18 -31 -14 -17 -26 -34 -26 -37 1 -16 19 -36 27 -29 4 5 2 12 -5 16 -7 4
-10 15 -7 24 9 22 35 30 35 11 0 -8 -4 -12 -10 -9 -13 8 -13 -5 0 -25 6 -10 4
-20 -5 -30 -17 -19 -15 -69 3 -63 14 6 16 23 2 23 -5 0 -10 7 -10 15 0 18 20
20 21 3 0 -7 4 -2 10 10 5 13 6 28 3 34 -4 6 -3 13 2 17 5 3 25 24 44 46 19
21 27 33 18 26 -12 -9 -18 -10 -18 -2 0 6 3 12 8 12 4 1 16 3 27 4 11 1 47 8
81 15 49 11 69 11 105 1 24 -7 62 -14 84 -15 32 -1 40 -5 42 -21 2 -15 1 -16
-5 -5 -4 8 -16 16 -27 17 -18 1 -18 0 4 -15 32 -22 61 -25 61 -7 0 8 4 15 8
15 4 0 8 -9 8 -20 0 -18 -8 -24 -28 -21 -3 0 -2 -13 3 -29 5 -17 14 -45 19
-62 43 -138 -72 -288 -220 -288 -88 0 -202 78 -216 148 -11 54 -24 47 -20 -10
2 -29 2 -45 -1 -35 -5 18 -5 18 -19 0 -19 -26 -18 -29 28 -79 124 -135 316
-138 446 -7 47 47 63 82 35 76 -11 -2 -12 212 -1 223 4 3 6 -13 5 -37 -1 -24
2 -64 7 -88 6 -31 5 -42 -3 -37 -15 10 -14 -6 3 -30 13 -17 14 -11 10 51 -5
82 -5 78 0 134 2 24 1 38 -4 31 -4 -7 -13 -9 -19 -5 -9 5 -7 11 6 21 13 11 14
14 3 12 -10 -2 -15 5 -15 20 -1 93 -207 179 -330 139z m-101 -138 c-9 -11 -19
-17 -21 -15 -8 7 21 45 30 39 4 -3 1 -14 -9 -24z"/>
<path d="M1855 4737 c10 -40 11 -130 1 -151 -7 -14 -6 -17 2 -12 7 4 12 2 12
-5 0 -7 6 -4 14 7 8 10 12 21 10 24 -3 2 -9 -2 -14 -10 -8 -13 -10 -12 -10 2
0 9 5 18 10 20 7 2 7 15 0 38 -5 19 -10 49 -10 67 0 17 -5 35 -10 38 -7 4 -9
-2 -5 -18z"/>
<path d="M2421 4705 c0 -11 4 -27 9 -35 9 -13 10 -13 9 0 0 8 -4 24 -9 35 l-9
20 0 -20z"/>
<path d="M1684 4655 c-5 -27 -3 -40 7 -46 11 -6 15 0 17 28 5 51 -15 66 -24
18z"/>
<path d="M1891 4664 c0 -11 3 -14 6 -6 3 7 2 16 -1 19 -3 4 -6 -2 -5 -13z"/>
<path d="M2568 4548 c-36 -37 -37 -57 -2 -50 29 5 37 19 32 54 l-3 24 -27 -28z"/>
</g>
</svg>
